<?xml version="1.0" encoding="utf-8"?>
<!-- Generated by IcoMoon.io -->
<!DOCTYPE svg PUBLIC "-//W3C//DTD SVG 1.1//EN" "http://www.w3.org/Graphics/SVG/1.1/DTD/svg11.dtd">
<svg version="1.1" xmlns="http://www.w3.org/2000/svg" xmlns:xlink="http://www.w3.org/1999/xlink" width="1128" height="24" viewBox="0 0 1128 24">
<svg id="icon-closed_caption" width="24" height="24" viewBox="0 0 24 24" x="0" y="0">
<path fill="#fff" d="M18 11.016v-1.031c0-0.563-0.422-0.984-0.984-0.984h-3c-0.563 0-1.031 0.422-1.031 0.984v4.031c0 0.563 0.469 0.984 1.031 0.984h3c0.563 0 0.984-0.422 0.984-0.984v-1.031h-1.5v0.516h-2.016v-3h2.016v0.516h1.5zM11.016 11.016v-1.031c0-0.563-0.469-0.984-1.031-0.984h-3c-0.563 0-0.984 0.422-0.984 0.984v4.031c0 0.563 0.422 0.984 0.984 0.984h3c0.563 0 1.031-0.422 1.031-0.984v-1.031h-1.5v0.516h-2.016v-3h2.016v0.516h1.5zM18.984 3.984c1.078 0 2.016 0.938 2.016 2.016v12c0 1.078-0.938 2.016-2.016 2.016h-13.969c-1.125 0-2.016-0.938-2.016-2.016v-12c0-1.078 0.891-2.016 2.016-2.016h13.969z"></path>
</svg>
<svg id="icon-cloud_download" width="24" height="24" viewBox="0 0 24 24" x="48" y="0">
<path fill="#fff" d="M17.016 12.984h-3v-3.984h-4.031v3.984h-3l5.016 5.016zM19.359 10.031c2.578 0.188 4.641 2.344 4.641 4.969 0 2.766-2.25 5.016-5.016 5.016h-12.984c-3.328 0-6-2.672-6-6 0-3.094 2.344-5.625 5.344-5.953 1.266-2.391 3.75-4.078 6.656-4.078 3.656 0 6.656 2.578 7.359 6.047z"></path>
</svg>
<svg id="icon-eject" width="24" height="24" viewBox="0 0 24 24" x="96" y="0">
<path fill="#fff" d="M12 5.016l6.656 9.984h-13.313zM5.016 17.016h13.969v1.969h-13.969v-1.969z"></path>
</svg>
<svg id="icon-fullscreen" width="24" height="24" viewBox="0 0 24 24" x="144" y="0">
<path fill="#fff" d="M14.016 5.016h4.969v4.969h-1.969v-3h-3v-1.969zM17.016 17.016v-3h1.969v4.969h-4.969v-1.969h3zM5.016 9.984v-4.969h4.969v1.969h-3v3h-1.969zM6.984 14.016v3h3v1.969h-4.969v-4.969h1.969z"></path>
</svg>
<svg id="icon-fullscreen_exit" width="24" height="24" viewBox="0 0 24 24" x="192" y="0">
<path fill="#fff" d="M15.984 8.016h3v1.969h-4.969v-4.969h1.969v3zM14.016 18.984v-4.969h4.969v1.969h-3v3h-1.969zM8.016 8.016v-3h1.969v4.969h-4.969v-1.969h3zM5.016 15.984v-1.969h4.969v4.969h-1.969v-3h-3z"></path>
</svg>
<svg id="icon-help_outline" width="24" height="24" viewBox="0 0 24 24" x="240" y="0">
<path fill="#fff" d="M12 6c2.203 0 3.984 1.781 3.984 3.984 0 2.484-3 2.766-3 5.016h-1.969c0-3.234 3-3 3-5.016 0-1.078-0.938-1.969-2.016-1.969s-2.016 0.891-2.016 1.969h-1.969c0-2.203 1.781-3.984 3.984-3.984zM12 20.016c4.406 0 8.016-3.609 8.016-8.016s-3.609-8.016-8.016-8.016-8.016 3.609-8.016 8.016 3.609 8.016 8.016 8.016zM12 2.016c5.531 0 9.984 4.453 9.984 9.984s-4.453 9.984-9.984 9.984-9.984-4.453-9.984-9.984 4.453-9.984 9.984-9.984zM11.016 18v-2.016h1.969v2.016h-1.969z"></path>
</svg>
<svg id="icon-info_outline" width="24" height="24" viewBox="0 0 24 24" x="288" y="0">
<path fill="#fff" d="M11.016 9v-2.016h1.969v2.016h-1.969zM12 20.016c4.406 0 8.016-3.609 8.016-8.016s-3.609-8.016-8.016-8.016-8.016 3.609-8.016 8.016 3.609 8.016 8.016 8.016zM12 2.016c5.531 0 9.984 4.453 9.984 9.984s-4.453 9.984-9.984 9.984-9.984-4.453-9.984-9.984 4.453-9.984 9.984-9.984zM11.016 17.016v-6h1.969v6h-1.969z"></path>
</svg>
<svg id="icon-pause" width="24" height="24" viewBox="0 0 24 24" x="336" y="0">
<path fill="#fff" d="M14.016 5.016h3.984v13.969h-3.984v-13.969zM6 18.984v-13.969h3.984v13.969h-3.984z"></path>
</svg>
<svg id="icon-play_arrow" width="24" height="24" viewBox="0 0 24 24" x="384" y="0">
<path fill="#fff" d="M8.016 5.016l10.969 6.984-10.969 6.984v-13.969z"></path>
</svg>
<svg id="icon-settings" width="24" height="24" viewBox="0 0 24 24" x="432" y="0">
<path fill="#fff" d="M12 15.516c1.922 0 3.516-1.594 3.516-3.516s-1.594-3.516-3.516-3.516-3.516 1.594-3.516 3.516 1.594 3.516 3.516 3.516zM19.453 12.984l2.109 1.641c0.188 0.141 0.234 0.422 0.094 0.656l-2.016 3.469c-0.141 0.234-0.375 0.281-0.609 0.188l-2.484-0.984c-0.516 0.375-1.078 0.75-1.688 0.984l-0.375 2.625c-0.047 0.234-0.234 0.422-0.469 0.422h-4.031c-0.234 0-0.422-0.188-0.469-0.422l-0.375-2.625c-0.609-0.234-1.172-0.563-1.688-0.984l-2.484 0.984c-0.234 0.094-0.469 0.047-0.609-0.188l-2.016-3.469c-0.141-0.234-0.094-0.516 0.094-0.656l2.109-1.641c-0.047-0.328-0.047-0.656-0.047-0.984s0-0.656 0.047-0.984l-2.109-1.641c-0.188-0.141-0.234-0.422-0.094-0.656l2.016-3.469c0.141-0.234 0.375-0.281 0.609-0.188l2.484 0.984c0.516-0.375 1.078-0.75 1.688-0.984l0.375-2.625c0.047-0.234 0.234-0.422 0.469-0.422h4.031c0.234 0 0.422 0.188 0.469 0.422l0.375 2.625c0.609 0.234 1.172 0.563 1.688 0.984l2.484-0.984c0.234-0.094 0.469-0.047 0.609 0.188l2.016 3.469c0.141 0.234 0.094 0.516-0.094 0.656l-2.109 1.641c0.047 0.328 0.047 0.656 0.047 0.984s0 0.656-0.047 0.984z"></path>
</svg>
<svg id="icon-stop" width="24" height="24" viewBox="0 0 24 24" x="480" y="0">
<path fill="#fff" d="M6 6h12v12h-12v-12z"></path>
</svg>
<svg id="icon-volume_mute" width="24" height="24" viewBox="0 0 24 24" x="528" y="0">
<path fill="#fff" d="M6.984 9h4.031l4.969-5.016v16.031l-4.969-5.016h-4.031v-6z"></path>
</svg>
<svg id="icon-volume_up" width="24" height="24" viewBox="0 0 24 24" x="576" y="0">
<path fill="#fff" d="M14.016 3.234c4.031 0.891 6.984 4.5 6.984 8.766s-2.953 7.875-6.984 8.766v-2.063c2.906-0.844 4.969-3.516 4.969-6.703s-2.063-5.859-4.969-6.703v-2.063zM16.5 12c0 1.781-0.984 3.281-2.484 4.031v-8.063c1.5 0.75 2.484 2.25 2.484 4.031zM3 9h3.984l5.016-5.016v16.031l-5.016-5.016h-3.984v-6z"></path>
</svg>
</svg>
